HIERARCHY
ROOT root
{
	OFFSET 0.000000 0.000000 0.000000
	CHANNELS 6 Xposition Yposition Zposition Zrotation Yrotation Xrotation
	JOINT lhip
	{
		OFFSET 0.058581 -0.082280 -0.017664
		CHANNELS 3 Zrotation Yrotation Xrotation
		JOINT lknee
		{
			OFFSET 0.043451 -0.386469 0.008037
			CHANNELS 3 Zrotation Yrotation Xrotation
			JOINT lankle
			{
				OFFSET -0.014790 -0.426874 -0.037428
				CHANNELS 3 Zrotation Yrotation Xrotation
				JOINT ltoe
				{
					OFFSET 0.041054 -0.060286 0.122042
					CHANNELS 3 Zrotation Yrotation Xrotation
					End Site
					{
						OFFSET 0.000000 0.000000 0.000000
					}
				}
			}
		}
	}
	JOINT rhip
	{
		OFFSET -0.060310 -0.090513 -0.013543
		CHANNELS 3 Zrotation Yrotation Xrotation
		JOINT rknee
		{
			OFFSET -0.043257 -0.383688 -0.004843
			CHANNELS 3 Zrotation Yrotation Xrotation
			JOINT rankle
			{
				OFFSET 0.019056 -0.420046 -0.034562
				CHANNELS 3 Zrotation Yrotation Xrotation
				JOINT rtoe
				{
					OFFSET -0.034840 -0.062106 0.130323
					CHANNELS 3 Zrotation Yrotation Xrotation
					End Site
					{
						OFFSET 0.000000 0.000000 0.000000
					}
				}
			}
		}
	}
	JOINT lowerback
	{
		OFFSET 0.004439 0.124404 -0.038385
		CHANNELS 3 Zrotation Yrotation Xrotation
		JOINT upperback
		{
			OFFSET 0.004488 0.137956 0.026820
			CHANNELS 3 Zrotation Yrotation Xrotation
			JOINT chest
			{
				OFFSET -0.002265 0.056032 0.002855
				CHANNELS 3 Zrotation Yrotation Xrotation
				JOINT lowerneck
				{
					OFFSET -0.013390 0.211636 -0.033468
					CHANNELS 3 Zrotation Yrotation Xrotation
					JOINT upperneck
					{
						OFFSET 0.010113 0.088937 0.050410
						CHANNELS 3 Zrotation Yrotation Xrotation
						End Site
						{
							OFFSET 0.000000 0.000000 0.000000
						}
					}
				}
				JOINT lclavicle
				{
					OFFSET 0.071702 0.114000 -0.018898
					CHANNELS 3 Zrotation Yrotation Xrotation
					JOINT lshoulder
					{
						OFFSET 0.122921 0.045205 -0.019046
						CHANNELS 3 Zrotation Yrotation Xrotation
						JOINT lelbow
						{
							OFFSET 0.255332 -0.015649 -0.022946
							CHANNELS 3 Zrotation Yrotation Xrotation
							JOINT lwrist
							{
								OFFSET 0.265709 0.012698 -0.007375
								CHANNELS 3 Zrotation Yrotation Xrotation
								End Site
								{
									OFFSET 0.000000 0.000000 0.000000
								}
							}
						}
					}
				}
				JOINT rclavicle
				{
					OFFSET -0.082954 0.112472 -0.023707
					CHANNELS 3 Zrotation Yrotation Xrotation
					JOINT rshoulder
					{
						OFFSET -0.113228 0.046853 -0.008472
						CHANNELS 3 Zrotation Yrotation Xrotation
						JOINT relbow
						{
							OFFSET -0.260127 -0.014369 -0.031269
							CHANNELS 3 Zrotation Yrotation Xrotation
							JOINT rwrist
							{
								OFFSET -0.269108 0.006794 -0.006027
								CHANNELS 3 Zrotation Yrotation Xrotation
								End Site
								{
									OFFSET 0.000000 0.000000 0.000000
								}
							}
						}
					}
				}
			}
		}
	}
}
MOTION
Frames: 7
Frame Time: 0.033333
0.068551 -0.455409 0.815625 -150.551613 -9.550216 103.306176 8.411169 -4.319499 -61.736612 -12.165193 7.771793 62.655118 1.456744 5.190585 -22.230714 0.000000 -0.000000 0.000000 -30.041472 -21.974905 -36.866776 -4.571784 -10.644784 75.592442 12.859091 -8.857876 -32.748804 0.000000 -0.000000 0.000000 5.702616 16.813393 43.654692 -10.885514 4.260913 -3.538609 -4.741698 2.029218 -1.687189 -19.129628 24.394509 -6.279316 -9.777516 24.109581 -12.371526 -26.845576 -3.920439 -1.326128 -11.180231 10.234083 -5.965586 14.308923 -23.158407 -28.111574 35.969758 -21.998557 4.596966 28.359676 8.417614 9.108058 31.560350 -12.415175 15.701534 13.621221 54.954671 -0.247453 -29.936121 24.401176 -21.558295 
0.067132 -0.456256 0.816395 -149.802200 -9.550429 103.518835 8.067392 -5.168812 -62.437763 -11.922575 7.176726 63.079412 1.409746 5.643238 -22.177135 0.000000 -0.000000 0.000000 -30.464029 -22.029368 -36.433483 -4.449022 -11.428134 75.413413 13.018333 -9.153560 -32.658945 0.000000 -0.000000 0.000000 5.679277 16.169658 42.323207 -10.219981 4.230261 -2.453315 -4.773478 2.137695 -1.361863 -17.634771 19.115695 -7.345278 -8.064285 17.739132 -11.462620 -27.605090 -3.079761 -1.285333 -10.802447 8.224804 -5.238126 14.559512 -22.384146 -29.802054 35.006245 -22.611281 6.105828 28.594986 7.593895 7.851750 31.046528 -11.957886 16.572162 11.424202 54.932933 -2.618816 -29.941834 24.877722 -22.366280 
0.067149 -0.454010 0.817264 -150.902191 -9.474653 103.075082 8.633129 -4.456193 -60.992565 -13.077230 7.666838 62.129743 1.764713 6.496401 -22.510943 0.000000 -0.000000 0.000000 -29.819704 -21.529962 -36.401920 -4.740903 -10.412633 75.148436 12.660670 -9.054680 -32.395991 0.000000 -0.000000 0.000000 3.829474 15.867898 42.463451 -10.105917 5.313405 -4.573339 -3.993131 2.625191 1.508587 -16.051915 13.402668 -10.541427 -4.405368 8.261549 -9.926932 -27.189122 -3.418747 -1.521390 -11.741442 7.773367 -7.579630 13.932603 -22.601300 -25.671317 36.094670 -21.987202 3.762600 28.711126 8.908106 6.966789 31.320972 -12.494016 13.732092 14.275896 54.999644 4.789835 -34.949422 23.123076 -26.893491 
0.065202 -0.452481 0.818487 -151.025337 -9.150620 102.395842 7.849301 -4.281893 -60.018821 -11.814570 6.800912 62.331441 1.427085 5.561776 -22.625557 0.000000 -0.000000 0.000000 -29.543297 -21.217335 -35.389639 -4.976996 -10.068113 74.447419 12.884142 -8.823941 -32.345840 0.000000 -0.000000 0.000000 5.079317 16.971777 43.592569 -8.854474 3.716030 -3.257852 -4.175319 2.125249 -0.244809 -13.075134 4.919773 -9.733645 -1.999852 0.091612 -11.712675 -28.082269 -2.638478 -1.169076 -11.990866 7.533452 -5.756841 14.755047 -22.643059 -27.054901 35.405531 -20.884552 3.832662 28.027363 9.034156 6.028940 31.995386 -13.040327 15.403167 11.248186 55.339096 1.352229 -34.868512 23.264939 -25.258702 
0.063627 -0.453471 0.819686 -150.696986 -9.002920 102.882577 7.426237 -4.618791 -60.861667 -11.387928 6.199972 62.859329 1.252191 5.643341 -22.584871 0.000000 -0.000000 0.000000 -29.657846 -21.344167 -35.375566 -5.003140 -10.824427 74.053209 12.972067 -8.978160 -32.265478 0.000000 -0.000000 0.000000 4.953647 16.330069 42.375609 -8.252354 3.385584 -2.646530 -4.106298 2.405640 -0.594363 -10.382015 -3.107344 -9.252679 1.153447 -7.583586 -13.332297 -28.896143 -2.256144 -0.152901 -11.743078 6.601253 -4.964016 14.892917 -21.775033 -29.774296 34.721623 -20.899109 5.088701 27.521755 8.660970 4.967474 32.590028 -12.986512 15.688742 10.686374 54.833040 0.110010 -34.371158 23.803681 -23.174872 
0.062496 -0.452051 0.821156 -152.191646 -8.653723 102.157255 7.963571 -3.797602 -59.126777 -12.112949 6.561179 62.114423 1.773335 6.425678 -22.907830 0.000000 -0.000000 0.000000 -28.978833 -20.884778 -35.016143 -5.122649 -9.922238 73.266108 12.301282 -8.798743 -32.206952 0.000000 -0.000000 0.000000 4.383151 16.220186 43.519455 -8.113665 3.877887 -4.083918 -3.657501 2.284619 0.521233 -8.143945 -9.424298 -10.806584 4.450048 -14.139502 -13.766074 -28.418507 -2.663819 0.653859 -13.897332 7.376560 -7.088179 15.169156 -21.982521 -25.645574 34.843591 -19.585722 2.110470 26.220175 10.284188 4.699462 34.827327 -13.801303 12.649011 11.418081 54.749003 5.215449 -34.164376 22.539878 -26.006026 
0.060325 -0.452800 0.822199 -152.778660 -8.399940 102.270575 7.436698 -3.651537 -59.325093 -10.787342 6.213404 62.788947 1.322709 5.834739 -23.191596 0.000000 -0.000000 0.000000 -29.045667 -20.838393 -35.091853 -5.235046 -10.202406 72.811451 12.549436 -8.187321 -32.023285 0.000000 -0.000000 0.000000 4.870088 16.785994 43.436032 -7.245636 3.057507 -2.601833 -3.609552 1.972682 -1.522576 -5.748437 -14.635950 -9.509711 7.177307 -19.017668 -16.234314 -29.511599 -2.093529 1.639908 -13.908388 7.243627 -5.709883 15.907058 -21.464679 -28.792569 34.393362 -19.353652 3.284629 26.466355 9.812355 4.994418 34.015457 -14.141605 13.625717 10.464463 55.212683 2.324425 -34.001989 23.037815 -26.099414 
